<?xml version="1.0" standalone="no"?><!DOCTYPE svg PUBLIC "-//W3C//DTD SVG 1.1//EN" "http://www.w3.org/Graphics/SVG/1.1/DTD/svg11.dtd"><svg t="1672798255933" class="icon" viewBox="0 0 1024 1024" version="1.1" xmlns="http://www.w3.org/2000/svg" p-id="2437" xmlns:xlink="http://www.w3.org/1999/xlink" width="200" height="200"><path d="M124.032 323.744L480 529.344v412.16L132.032 740.608a16 16 0 0 1-8-13.856V323.744z m775.936 0.032v402.976a16 16 0 0 1-8 13.856L544 941.504v-412.16l355.968-205.568zM384 752.16c-17.664-8.768-32-1.536-32 16.16 0 17.664 14.336 39.072 32 47.84 17.664 8.736 32 1.504 32-16.16s-14.336-39.104-32-47.84z m448-79.584c0-17.664-14.336-24.96-32-16.288s-32 30.048-32 47.712c0 17.664 14.336 24.96 32 16.32 17.664-8.704 32-30.08 32-47.744z m-608-16.416c-17.664-8.768-32-1.536-32 16.16 0 17.664 14.336 39.072 32 47.84 17.664 8.736 32 1.504 32-16.16s-14.336-39.104-32-47.84z m448-79.84c0-17.696-14.336-24.928-32-16.16-17.664 8.736-32 30.176-32 47.84 0 17.664 14.336 24.896 32 16.16 17.664-8.768 32-30.176 32-47.84z m-288-16.16c-17.664-8.768-32-1.536-32 16.16 0 17.664 14.336 39.072 32 47.84 17.664 8.736 32 1.504 32-16.16s-14.336-39.104-32-47.84z m-160-96c-17.664-8.768-32-1.536-32 16.16 0 17.664 14.336 39.072 32 47.84 17.664 8.736 32 1.504 32-16.16s-14.336-39.104-32-47.84z m296-395.52l346.976 200.32L512 473.92 157.024 268.928l346.976-200.32a16 16 0 0 1 16 0zM512 240c-26.496 0-48 14.336-48 32s21.504 32 48 32 48-14.336 48-32-21.504-32-48-32z" fill="#1296db" p-id="2438"></path></svg>